<?xml version="1.0" standalone="no"?><!DOCTYPE svg PUBLIC "-//W3C//DTD SVG 1.1//EN" "http://www.w3.org/Graphics/SVG/1.1/DTD/svg11.dtd"><svg t="1630394308072" class="icon" viewBox="0 0 1152 1024" version="1.1" xmlns="http://www.w3.org/2000/svg" p-id="1584" xmlns:xlink="http://www.w3.org/1999/xlink" width="225" height="200"><defs><style type="text/css"></style></defs><path d="M702.577778 412.444444h2.844444a206.222222 206.222222 0 1 0-2.844444 0zM705.422222 56.888889a149.333333 149.333333 0 0 1 0 298.666667h-2.844444A149.333333 149.333333 0 1 1 705.422222 56.888889zM378.311111 497.777778H34.133333A34.133333 34.133333 0 0 0 0 531.911111v344.177778A34.133333 34.133333 0 0 0 34.133333 910.222222h344.177778a34.133333 34.133333 0 0 0 34.133333-34.133333V531.911111a34.133333 34.133333 0 0 0-34.133333-34.133333zM355.555556 853.333333H56.888889V554.666667h298.666667zM876.088889 497.777778H531.911111a34.133333 34.133333 0 0 0-34.133333 34.133333v344.177778a34.133333 34.133333 0 0 0 34.133333 34.133333h344.177778a34.133333 34.133333 0 0 0 34.133333-34.133333V531.911111a34.133333 34.133333 0 0 0-34.133333-34.133333zM853.333333 853.333333H554.666667V554.666667H853.333333zM378.311111 0H34.133333A34.133333 34.133333 0 0 0 0 34.133333v344.177778a34.133333 34.133333 0 0 0 34.133333 34.133333h344.177778a34.133333 34.133333 0 0 0 34.133333-34.133333V34.133333A34.133333 34.133333 0 0 0 378.311111 0z m-22.755555 355.555556H56.888889V56.888889h298.666667z" p-id="1585"></path></svg>