<?xml version="1.0" standalone="no"?><!DOCTYPE svg PUBLIC "-//W3C//DTD SVG 1.1//EN" "http://www.w3.org/Graphics/SVG/1.1/DTD/svg11.dtd"><svg t="1630921408315" class="icon" viewBox="0 0 1024 1024" version="1.1" xmlns="http://www.w3.org/2000/svg" p-id="2465" xmlns:xlink="http://www.w3.org/1999/xlink" width="200" height="200"><defs><style type="text/css"></style></defs><path d="M455.332373 545.709753c-133.197628 0-241.560638-108.365056-241.560638-241.562684S322.134745 62.58336 455.332373 62.58336s241.565754 108.365056 241.565754 241.562684S588.530001 545.709753 455.332373 545.709753zM455.332373 129.244596c-96.438423 0-174.899402 78.459956-174.899402 174.901449s78.459956 174.901449 174.899402 174.901449c96.443539 0 174.904519-78.459956 174.904519-174.901449S551.775912 129.244596 455.332373 129.244596z" p-id="2466"></path><path d="M110.916159 960.489524c-18.406209 0-33.331129-14.923898-33.331129-33.331129 0-247.088538 201.025433-448.110901 448.113971-448.110901 5.088902 0 10.160407 0.086981 15.216563 0.25992 16.5837 0.572028 33.346479 2.091638 49.827849 4.51892 18.21178 2.683109 30.80254 19.621896 28.117384 37.833677-2.680039 18.20871-19.659759 30.786167-37.827537 28.117384-14.034645-2.067079-28.30158-3.360538-42.400692-3.846608-4.290723-0.146333-8.603959-0.222057-12.932544-0.222057-210.334449 0-381.452735 171.115216-381.452735 381.449665C144.246265 945.565627 129.322367 960.489524 110.916159 960.489524z" p-id="2467"></path><path d="M915.603221 645.701095 617.477286 645.701095c-18.406209 0-33.330106-14.923898-33.330106-33.330106s14.923898-33.331129 33.330106-33.331129l298.125935 0c18.406209 0 33.331129 14.923898 33.331129 33.331129S934.00943 645.701095 915.603221 645.701095z" p-id="2468"></path><path d="M915.603221 929.014672 617.477286 929.014672c-18.406209 0-33.330106-14.923898-33.330106-33.331129s14.923898-33.330106 33.330106-33.330106l298.125935 0c18.406209 0 33.331129 14.923898 33.331129 33.330106S934.00943 929.014672 915.603221 929.014672z" p-id="2469"></path><path d="M687.843914 791.05867l-68.51649 0c-18.406209 0-33.331129-14.923898-33.331129-33.331129 0-18.406209 14.923898-33.330106 33.331129-33.330106l68.51649 0c18.407232 0 33.331129 14.923898 33.331129 33.330106C721.17402 776.134773 706.250122 791.05867 687.843914 791.05867z" p-id="2470"></path><path d="M917.453359 791.05867 774.869966 791.05867c-18.406209 0-33.330106-14.923898-33.330106-33.331129 0-18.406209 14.923898-33.330106 33.330106-33.330106l142.583392 0c18.406209 0 33.330106 14.923898 33.330106 33.330106C950.783465 776.134773 935.859567 791.05867 917.453359 791.05867z" p-id="2471"></path></svg>