<?xml version="1.0" standalone="no"?><!DOCTYPE svg PUBLIC "-//W3C//DTD SVG 1.1//EN" "http://www.w3.org/Graphics/SVG/1.1/DTD/svg11.dtd"><svg t="1630742433054" class="icon" viewBox="0 0 1024 1024" version="1.1" xmlns="http://www.w3.org/2000/svg" p-id="3693" xmlns:xlink="http://www.w3.org/1999/xlink" width="200" height="200"><defs><style type="text/css"></style></defs><path d="M841.47222 1000.192A55.5 55.5 0 0 1 763.24022 921.6l71.68-71.68H524.69822a55.45 55.45 0 0 1 0-110.848h310.17l-71.68-71.68a69.274 69.274 0 0 1-6.4-6.451 55.5 55.5 0 0 1 84.633-71.68l163.123 163.123a56.32 56.32 0 0 1 18.79 34.406 54.938 54.938 0 0 1-15.36 47.207zM575.74422 19.251a119.552 119.552 0 0 0-121.037-5.12l-9.267 5.274L54.73322 274.022a120.678 120.678 0 0 0-54.22 90.164L0.00022 375.296v528.026a120.474 120.474 0 0 0 110.234 120.268l9.83 0.41h167.987a53.658 53.658 0 0 0 6.708-106.854l-6.708-0.666H120.06422a13.312 13.312 0 0 1-12.85-9.83l-0.46-3.533V375.296a13.466 13.466 0 0 1 3.531-9.114l2.56-2.15L503.45022 109.466a13.312 13.312 0 0 1 11.008-1.639l3.481 1.587 393.421 254.72a13.312 13.312 0 0 1 5.683 7.936l0.41 3.328v156.468a53.35 53.35 0 0 0 106.342 6.758l0.41-6.758V375.398a120.934 120.934 0 0 0-46.746-95.59l-8.294-5.888z" p-id="3694"></path></svg>